<svg xmlns="http://www.w3.org/2000/svg" width="24" height="24" fill="#cdcdcd" viewBox="0 0 24 24" style="transform:rotate(.5turn)"><path fill="#cdcdcd" fill-rule="evenodd" d="M11.873 21.496a1 1 0 0 1-.992.496l-.454-.056A4 4 0 0 1 7.1 16.79L7.65 15h-.718c-2.637 0-4.553-2.508-3.859-5.052l1.364-5A4 4 0 0 1 8.296 2h9.709a3 3 0 0 1 3 3v7a3 3 0 0 1-3 3h-2c-.26 0-.5.14-.628.364zM14.005 4h-5.71a2 2 0 0 0-1.929 1.474l-1.363 5A2 2 0 0 0 6.933 13h2.072a1 1 0 0 1 .955 1.294l-.949 3.084a2 2 0 0 0 1.462 2.537l3.167-5.543a2.72 2.72 0 0 1 1.364-1.182V5a1 1 0 0 0-1-1m3 9V5c0-.35-.06-.687-.171-1h1.17a1 1 0 0 1 1 1v7a1 1 0 0 1-1 1z" clip-rule="evenodd"></path></svg>