<svg xmlns="http://www.w3.org/2000/svg" version="1.1" xmlns:xlink="http://www.w3.org/1999/xlink" width="512" height="512" x="0" y="0" viewBox="0 0 64 64" style="enable-background:new 0 0 512 512" xml:space="preserve" class="hovered-paths"><g><g data-name="egg nest"><path d="M43.62 22.53c-4.32-1.85-8.83 1.54-10.84 5.55A23.07 23.07 0 0 0 30.24 36h6.34l2.71-2.71a1 1 0 0 1 1.42 1.42L39.42 36h12.34a21.73 21.73 0 0 0-3.11-8.9c-2.43-3.84-4.88-4.42-5.03-4.57zM48 27.88a19.56 19.56 0 0 1 2.38 5.88A1 1 0 0 1 49.6 35c-1.71.43-.91-2.15-3.34-6A1 1 0 0 1 48 27.88zm-3.39-3.71c1 .64 2 1.44 1.18 2.3a1 1 0 0 1-1.42.06 6.84 6.84 0 0 0-.87-.7 1 1 0 0 1 1.06-1.66zM12.68 35.81c.05.27-.3.19 2.9.19l-1.79-1.79a1 1 0 0 1 1.42-1.42l.79.79V33a1 1 0 0 1 2 0v3h10.23a24.92 24.92 0 0 1 2.43-8.21 22.76 22.76 0 0 0-7-3.14C16.09 22.79 10.65 27 12.68 35.81zm10.76-10.19a18.73 18.73 0 0 1 5.35 2.22 1 1 0 0 1-.7 1.72c-.69 0-1.68-1.16-5.12-2a1 1 0 0 1 .47-1.94zm-3.33-.38a1 1 0 0 1 0 2h-.29c-1.39.02-1.61-2 .29-2z" fill="#ffffff" opacity="1" data-original="#000000" class="hovered-path"></path><path d="M19.11 22.26a20.53 20.53 0 0 1 12.54 3.79 15.88 15.88 0 0 1 2.38-3c3.6-3.36 7.52-3.85 11-2.13a18.12 18.12 0 0 0-2.08-8.3c-5.74-10.32-19.3-4.14-24 9.32-.15.45-.19.36.18.32zm17.41-9.34a3.14 3.14 0 0 0-.53-.23 1 1 0 0 1 .66-1.89 5.13 5.13 0 0 1 .83.37 1 1 0 0 1-.96 1.75zm3.14 5.3a9.66 9.66 0 0 0-1.49-3.73 1 1 0 0 1 1.66-1.13 11.81 11.81 0 0 1 1.78 4.43 1 1 0 0 1-1.95.43zM38 48h15.12a13.85 13.85 0 0 0 1.74-5h-3.44c-2.88 2.88-2.86 3-3.42 3a1 1 0 0 1-.71-1.71L48.58 43H43a1 1 0 0 1 0-2h12a3 3 0 0 0-3-3H37.42l-4.71 4.71a1 1 0 0 1-1.42-1.42L34.58 38h-6.16l1.29 1.29A1 1 0 0 1 29 41c-.56 0-.52-.1-3.42-3-6.19 0-5.26-.1-4.87.29A1 1 0 0 1 20 40c-.55 0-.64-.22-2.42-2H12a3 3 0 0 0-3 3v1h13a1 1 0 0 1 0 2H9.32a12.54 12.54 0 0 0 .68 2.13l2.65-1.06a1 1 0 0 1 .74 1.86l-2.52 1A14 14 0 0 0 22.59 55l2.7-2.7a1 1 0 0 1 1.42 1.42L25.42 55h11.41l-3.15-1a1 1 0 0 1 .64-1.9l8.49 2.83a13.93 13.93 0 0 0 8.9-4.93H38a1 1 0 0 1 0-2zm-9 2h-6.67l-3.73 2.8a1 1 0 0 1-1.2-1.6L19 50h-3a1 1 0 0 1 0-2h13a1 1 0 0 1 0 2zm-2-4a1 1 0 0 1 0-2h12a1 1 0 0 1 0 2z" fill="#ffffff" opacity="1" data-original="#000000" class="hovered-path"></path><path d="M7.08 42.61A1 1 0 0 0 8 44h1.32A13.19 13.19 0 0 1 9 42c-.95 0-1.62-.12-1.92.61zM56 48h-2.88a13.34 13.34 0 0 1-1.41 2H56a1 1 0 0 0 0-2zM36.83 55c5.72 1.91 5.86 2 6.17 2a1 1 0 0 0 .32-2c-.85-.23.84 0-6.49 0zM56 43a1 1 0 0 0 .94-.67A1 1 0 0 0 56 41h-1a14.6 14.6 0 0 1-.14 2zM7.63 47.07a1 1 0 0 0 .74 1.86l2.48-1a12 12 0 0 1-.85-1.8zM28 38c.52 0 .48.09 0-.36zM22.29 55.29a1 1 0 0 0 1.42 1.42L25.42 55c-3.33 0-2.74-.1-3.13.29z" fill="#ffffff" opacity="1" data-original="#000000" class="hovered-path"></path></g></g></svg>